<svg xmlns="http://www.w3.org/2000/svg" version="1.2" viewBox="0 0 96 96">
  <style>.s2,.s3{fill:none;stroke:#000;stroke-linecap:round;stroke-width:2.8}.s2{stroke-miterlimit:10}.s3{stroke-linejoin:round}</style>
  <path id="Path 90" fill-rule="evenodd" d="M17.74 72.74q2.21 0 3.2-.6.96-.57.96-1.68V53.9h2.64q2.28 0 3.6.46 1.32.45 2.12 1.34.79.89 1.34 2.36l5.2 12.6q.54 1.32 1.62 1.7 1.08.39 2.6.38h2.84q2.22.01 3.12-.32.9-.3.9-1.2 0-.42-.18-1.04-.17-.63-.52-1.38l-5.6-14q-.69-1.8-1.92-3.18-1.21-1.38-2.38-1.8v-.28q2.55-.91 4.26-2.5 1.7-1.59 2.56-3.88.87-2.29.86-5.26.01-6.57-4.18-10.18-4.19-3.6-13.34-3.6h-13.7q-2.57 0-2.56 2.78v43.56q-.01 1.11 1 1.68 1 .6 3.14.6zM21.9 33.2H28q3.18 0 4.6 1.44 1.43 1.46 1.42 4.72.01 3.25-1.42 4.7-1.42 1.46-4.6 1.46h-6.1zM78 24.12q-2.22 0-3.18.58-.97.59-.98 1.7v16.56h-2.62q-2.28-.01-3.6-.46-1.32-.45-2.12-1.34-.79-.9-1.34-2.36l-5.2-12.6q-.57-1.32-1.62-1.7-1.09-.38-2.6-.38H51.9q-2.22 0-3.12.32-.9.3-.9 1.2 0 .41.16 1.04.18.63.52 1.38l5.62 14q.69 1.8 1.9 3.18 1.21 1.38 2.4 1.8v.28q-2.58.9-4.26 2.5-1.72 1.58-2.56 3.88-.88 2.28-.88 5.26 0 6.57 4.2 10.18 4.18 3.6 13.32 3.6h13.72q2.55 0 2.56-2.78V26.4q-.01-1.11-1-1.7-1.01-.58-3.16-.58zm-4.16 39.54h-6.08q-3.2 0-4.62-1.44-1.42-1.46-1.42-4.72 0-3.25 1.42-4.7 1.42-1.47 4.62-1.46h6.08z" style="fill:#000"/><path id="Path 91" fill-rule="evenodd" d="m38.92 13.36 4.2-4.2-4.2-4.18" class="s2"/><path id="Path 92" fill-rule="evenodd" d="M43.12 9.16H2.34V87.7h42.74" class="s3"/><path id="Path 93" fill-rule="evenodd" d="m57.36 83.5-4.18 4.2 4.18 4.18" class="s2"/><path id="Path 94" fill-rule="evenodd" d="M53.18 87.7h40.78V9.16H51.2" class="s3"/>
</svg>
