<svg xmlns="http://www.w3.org/2000/svg" version="1.2" viewBox="0 0 338 96">
    <style>
        .s2,.s3{fill:none;stroke:#000;stroke-linecap:round;stroke-width:2.8}.s2{stroke-miterlimit:10}.s3{stroke-linejoin:round}</style>
    <path id="Ressourcen Revolution"
        d="m133.6 47-5.2-10.5h-3.9V47h-7.2V17.1H129q5.3 0 8.3 2.4 3 2.4 3 6.7 0 3.1-1.3 5.1-1.2 2.1-3.9 3.4l6.2 12v.3zm-9.1-24.3v8.2h4.5q2.1 0 3.1-1.1t1-3q0-1.9-1-3-1.1-1.1-3.1-1.1zm30.2 24.7q-5.1 0-8.2-3-3.2-3.1-3.2-8v-.5q0-3.4 1.3-6 1.2-2.6 3.7-4.1 2.4-1.4 5.7-1.4 4.7 0 7.4 2.9t2.7 8.1v2.7h-13.8q.4 1.8 1.7 2.9 1.2 1.1 3.2 1.1 3.3 0 5.1-2.3l3.2 3.7q-1.3 1.8-3.7 2.9-2.3 1-5.1 1zm-.7-17.7q-3.1 0-3.7 4.1h7v-.6q.1-1.6-.8-2.5-.9-1-2.5-1zm24.6 11.1q0-.9-.9-1.4-.9-.6-3.5-1.2-2.6-.5-4.3-1.5-1.7-.9-2.5-2.2-.9-1.4-.9-3.1 0-3 2.5-5t6.6-2q4.4 0 7.1 2 2.6 2 2.6 5.2h-6.9q0-2.6-2.8-2.6-1.1 0-1.8.6-.8.6-.8 1.5t.9 1.5q.9.5 2.9.9t3.5.9q5 1.7 5 6.2 0 3-2.7 4.9-2.7 1.9-7 1.9-2.8 0-5.1-1-2.2-1-3.5-2.8-1.2-1.8-1.2-3.7h6.4q.1 1.5 1.1 2.2 1 .7 2.5.7 1.4 0 2.1-.5.7-.6.7-1.5zm22 0q0-.9-.9-1.4-.9-.6-3.5-1.2-2.6-.5-4.3-1.5-1.7-.9-2.5-2.2-.9-1.4-.9-3.1 0-3 2.5-5t6.6-2q4.4 0 7.1 2 2.6 2 2.6 5.2h-6.9q0-2.6-2.8-2.6-1.1 0-1.8.6-.8.6-.8 1.5t.9 1.5q.9.5 2.9.9t3.5.9q5 1.7 5 6.2 0 3-2.7 4.9-2.7 1.9-7 1.9-2.8 0-5.1-1-2.2-1-3.5-2.8-1.2-1.8-1.2-3.7h6.4q.1 1.5 1.1 2.2 1 .7 2.5.7 1.4 0 2.1-.5.7-.6.7-1.5zm8.6-3.9-.1-1.2q0-3.3 1.3-5.9 1.3-2.6 3.7-4 2.5-1.4 5.7-1.4 5 0 7.9 3.1 2.8 3.1 2.8 8.4v.2q0 5.2-2.9 8.3-2.8 3-7.7 3-4.8 0-7.7-2.8-2.8-2.9-3-7.7zm6.9-2-.1 1.2q0 3.1 1 4.5 1 1.5 2.9 1.5 3.6 0 3.7-5.7v-.7q0-6-3.8-6-3.5 0-3.7 5.2zM247.4 47l-.2-2.4q-2.2 2.8-5.9 2.8t-5.5-2.1q-1.9-2.1-1.9-6.1V24.8h6.9v14.4q0 2.9 2.8 2.9 2.3 0 3.4-1.7V24.8h6.9V47zm24.1-22.4-.1 6.5-2.3-.2q-3.2 0-4.2 2.1v14H258V24.8h6.5l.2 2.9q1.8-3.3 4.9-3.3 1.1 0 1.9.2zm10.9 17.5q1.4 0 2.2-.8.8-.8.8-2.2h6.5q0 3.6-2.6 6-2.6 2.3-6.8 2.3-4.8 0-7.6-3-2.8-3.1-2.8-8.4v-.3q0-3.4 1.2-5.9 1.3-2.6 3.6-4 2.4-1.4 5.6-1.4 4.3 0 6.8 2.4 2.6 2.4 2.6 6.5h-6.5q0-1.7-.8-2.6-.9-1-2.3-1-2.7 0-3.1 3.5-.2 1-.2 3 0 3.3.8 4.6.8 1.3 2.6 1.3zm23.3 5.3q-5.1 0-8.2-3-3.2-3.1-3.2-8v-.5q0-3.4 1.2-6 1.3-2.6 3.7-4.1 2.5-1.4 5.8-1.4 4.7 0 7.4 2.9t2.7 8.1v2.7h-13.8q.4 1.8 1.6 2.9 1.3 1.1 3.3 1.1 3.3 0 5.1-2.3l3.2 3.7q-1.3 1.8-3.7 2.9-2.4 1-5.1 1zm-.8-17.7q-3 0-3.6 4.1h7v-.6q0-1.6-.8-2.5-.9-1-2.6-1zm12.9-4.9h6.5l.3 2.6q2.3-3 6.3-3 3.5 0 5.2 2.1 1.7 2 1.7 6.2V47h-6.9V33q0-1.7-.7-2.5-.6-.8-2.4-.8-2.1 0-3 1.6V47h-7zM154.7 84l-5.3-10.6h-3.9V84h-7.2V54.1h11.8q5.3 0 8.3 2.4 3 2.3 3 6.7 0 3.1-1.3 5.1-1.3 2.1-4 3.3l6.3 12.1v.3zm-9.2-24.3v8.2h4.6q2 0 3-1.1 1.1-1.1 1.1-3t-1.1-3q-1-1.1-3-1.1zm30.2 24.7q-5.1 0-8.3-3-3.1-3.1-3.1-8v-.5q0-3.5 1.2-6.1 1.3-2.6 3.7-4 2.4-1.4 5.7-1.4 4.7 0 7.4 2.9t2.7 8.1v2.7h-13.7q.4 1.8 1.6 2.9 1.3 1.1 3.3 1.1 3.2 0 5.1-2.3l3.1 3.7q-1.3 1.8-3.6 2.9-2.4 1-5.1 1zm-.8-17.7q-3 0-3.6 4h7v-.5q0-1.7-.9-2.6-.9-.9-2.5-.9zm18.4-4.9 3.5 14 3.5-14h7.3L200.3 84h-7L186 61.8zm14.8 12.1v-1.2q0-3.3 1.3-5.9 1.3-2.6 3.7-4 2.4-1.4 5.7-1.4 4.9 0 7.8 3.1 2.9 3.1 2.9 8.4v.2q0 5.2-2.9 8.3-2.9 3-7.8 3-4.7 0-7.6-2.8-2.9-2.9-3.1-7.7zm6.9-2v1.2q0 3.1.9 4.5 1 1.5 2.9 1.5 3.7 0 3.8-5.7v-.7q0-6-3.8-6-3.5 0-3.8 5.2zm25.2-19.4V84h-6.9V52.5zM258.3 84l-.2-2.4q-2.2 2.8-5.9 2.8-3.6 0-5.5-2.1t-1.9-6.1V61.8h6.9v14.4q0 2.9 2.8 2.9 2.4 0 3.4-1.7V61.8h6.9V84zM269 56.3h6.9v5.5h3.7v4.8h-3.7v10.2q0 1.2.5 1.7.4.5 1.8.5 1 0 1.7-.1v4.9q-1.9.6-3.9.6-3.6 0-5.3-1.7-1.7-1.7-1.7-5.1v-11h-2.8v-4.8h2.8zm21.2 5.5V84h-6.9V61.8zm-7.4-5.7q0-1.5 1.1-2.4 1-1 2.7-1 1.7 0 2.8 1 1.1.9 1.1 2.4t-1.1 2.4q-1.1 1-2.8 1-1.7 0-2.7-1-1.1-.9-1.1-2.4zM293 73.9v-1.2q0-3.3 1.3-5.9 1.3-2.6 3.7-4 2.4-1.4 5.7-1.4 5 0 7.8 3.1 2.9 3.1 2.9 8.4v.2q0 5.2-2.9 8.3-2.9 3-7.8 3-4.7 0-7.6-2.8-2.9-2.9-3.1-7.7zm6.9-2v1.2q0 3.1 1 4.5.9 1.5 2.8 1.5 3.7 0 3.8-5.7v-.7q0-6-3.8-6-3.5 0-3.8 5.2zm17.8-10.1h6.5l.2 2.6q2.3-3 6.4-3 3.4 0 5.1 2.1 1.8 2 1.8 6.2V84h-6.9V70q0-1.7-.7-2.5t-2.4-.8q-2.1 0-3.1 1.6V84h-6.9z"
        aria-label="Ressourcen Revolution" style="fill:#201b1e" />
    <path id="Path 90" fill-rule="evenodd"
        d="M17.74 72.74q2.21 0 3.2-.6.96-.57.96-1.68V53.9h2.64q2.28 0 3.6.46 1.32.45 2.12 1.34.79.89 1.34 2.36l5.2 12.6q.54 1.32 1.62 1.7 1.08.39 2.6.38h2.84q2.22.01 3.12-.32.9-.3.9-1.2 0-.42-.18-1.04-.17-.63-.52-1.38l-5.6-14q-.69-1.8-1.92-3.18-1.21-1.38-2.38-1.8v-.28q2.55-.91 4.26-2.5 1.7-1.59 2.56-3.88.87-2.29.86-5.26.01-6.57-4.18-10.18-4.19-3.6-13.34-3.6h-13.7q-2.57 0-2.56 2.78v43.56q-.01 1.11 1 1.68 1 .6 3.14.6zM21.9 33.2H28q3.18 0 4.6 1.44 1.43 1.46 1.42 4.72.01 3.25-1.42 4.7-1.42 1.46-4.6 1.46h-6.1zM78 24.12q-2.22 0-3.18.58-.97.59-.98 1.7v16.56h-2.62q-2.28-.01-3.6-.46-1.32-.45-2.12-1.34-.79-.9-1.34-2.36l-5.2-12.6q-.57-1.32-1.62-1.7-1.09-.38-2.6-.38H51.9q-2.22 0-3.12.32-.9.3-.9 1.2 0 .41.16 1.04.18.63.52 1.38l5.62 14q.69 1.8 1.9 3.18 1.21 1.38 2.4 1.8v.28q-2.58.9-4.26 2.5-1.72 1.58-2.56 3.88-.88 2.28-.88 5.26 0 6.57 4.2 10.18 4.18 3.6 13.32 3.6h13.72q2.55 0 2.56-2.78V26.4q-.01-1.11-1-1.7-1.01-.58-3.16-.58zm-4.16 39.54h-6.08q-3.2 0-4.62-1.44-1.42-1.46-1.42-4.72 0-3.25 1.42-4.7 1.42-1.47 4.62-1.46h6.08z"
        style="fill:#000" />
    <path id="Path 91" fill-rule="evenodd" d="m38.92 13.36 4.2-4.2-4.2-4.18" class="s2" />
    <path id="Path 92" fill-rule="evenodd" d="M43.12 9.16H2.34V87.7h42.74" class="s3" />
    <path id="Path 93" fill-rule="evenodd" d="m57.36 83.5-4.18 4.2 4.18 4.18" class="s2" />
    <path id="Path 94" fill-rule="evenodd" d="M53.18 87.7h40.78V9.16H51.2" class="s3" />
</svg>